# xmcd
#
# Track frame offsets:
#	150
#	21534
#	58033
#	65857
#
# Disc length: 2411 seconds
#
# Revision: 1
# Processed by: cddbd v1.5.2PL0 Copyright (c) Steve Scherf et al.
# Submitted via: audiograbber 1.83.01
#
DISCID=3b096904
DTITLE=Grateful Dead - 71-02-20 Capitol Theatre, Port Chester NY
DYEAR=1900
DGENRE=
TTITLE0=Not Fade Away
TTITLE1=GDTRFB
TTITLE2=Not Fade Away
TTITLE3=Turn On Your Lovelight
EXTD=
EXTT0=
EXTT1=
EXTT2=
EXTT3=
PLAYORDER=
